<?xml version="1.0" encoding="utf-8"?><svg viewBox="0 0 58 58" xmlns="http://www.w3.org/2000/svg" xmlns:xlink="http://www.w3.org/1999/xlink"><style>:root>svg{display:none}:root>svg:target{display:block}</style><svg viewBox="0 0 24 25" id="discuss" xmlns="http://www.w3.org/2000/svg"><path d="M8.486 19.689c1.06.52 2.253.811 3.514.811a8 8 0 1 0-6.66-3.566m3.146 2.755L4 20.5l1.34-3.566m3.146 2.755.006-.001M5.34 16.934l.002-.003"/></svg><svg viewBox="0 0 24 25" id="like" xmlns="http://www.w3.org/2000/svg"><path d="m11.645 21.41-.007-.003-.022-.012a15.247 15.247 0 0 1-.383-.218 25.18 25.18 0 0 1-4.244-3.17C4.688 15.86 2.25 12.674 2.25 8.75c0-2.928 2.464-5.25 5.438-5.25A5.5 5.5 0 0 1 12 5.552 5.5 5.5 0 0 1 16.313 3.5c2.973 0 5.437 2.322 5.437 5.25 0 3.925-2.438 7.111-4.739 9.256a25.175 25.175 0 0 1-4.244 3.17 15.247 15.247 0 0 1-.383.219l-.022.012-.007.004-.003.001a.752.752 0 0 1-.704 0l-.003-.001Z"/></svg><svg viewBox="0 0 24 24" id="linkedin" xmlns="http://www.w3.org/2000/svg"><path d="M20.865 1.6H3.135A1.535 1.535 0 0 0 1.6 3.135v17.73A1.536 1.536 0 0 0 3.136 22.4h17.729a1.536 1.536 0 0 0 1.535-1.536V3.135A1.536 1.536 0 0 0 20.865 1.6ZM7.8 19.319H4.672V9.385H7.8v9.934ZM6.234 8.009a1.795 1.795 0 1 1 1.805-1.794 1.77 1.77 0 0 1-1.805 1.794Zm13.092 11.318h-3.125V13.9c0-1.6-.68-2.094-1.559-2.094-.927 0-1.837.7-1.837 2.135v5.386H9.677V9.392h3.008v1.377h.04c.302-.611 1.36-1.655 2.973-1.655 1.745 0 3.63 1.035 3.63 4.069l-.002 6.144Z"/></svg><svg viewBox="0 0 24 24" id="medium" xmlns="http://www.w3.org/2000/svg"><path d="M13.537 12.228c0 3.77-3.03 6.828-6.768 6.828S0 15.998 0 12.228C0 8.458 3.03 5.4 6.769 5.4c3.738 0 6.768 3.057 6.768 6.828Zm7.426.001c0 3.549-1.516 6.427-3.385 6.427-1.869 0-3.384-2.878-3.384-6.427 0-3.55 1.515-6.428 3.384-6.428 1.87 0 3.384 2.877 3.384 6.428M24 12.228c0 3.18-.533 5.758-1.19 5.758-.658 0-1.19-2.578-1.19-5.758s.532-5.758 1.19-5.758c.657 0 1.19 2.578 1.19 5.758Z"/></svg><svg viewBox="0 0 58 58" id="play-icon" xmlns="http://www.w3.org/2000/svg"><path fill-rule="evenodd" clip-rule="evenodd" d="M.563 29C.563 13.294 13.293.562 29 .562 44.706.563 57.438 13.294 57.438 29S44.706 57.438 29 57.438.562 44.706.562 29Zm40.903-2.868c2.25 1.25 2.25 4.486 0 5.736l-16.341 9.08c-2.187 1.214-4.875-.367-4.875-2.87V19.922c0-2.501 2.688-4.083 4.875-2.868l16.341 9.079Z"/></svg><svg viewBox="0 0 24 25" id="share" xmlns="http://www.w3.org/2000/svg"><path d="m10.038 14.462-5.866-2.667c-.807-.367-.773-1.525.055-1.844L18.9 4.308c.809-.311 1.603.483 1.292 1.292L14.55 20.273c-.319.828-1.477.863-1.844.055l-2.667-5.866Zm0 0 4.385-4.385"/></svg><svg viewBox="0 0 24 24" id="twitter" xmlns="http://www.w3.org/2000/svg"><path d="M21.057 7.181c.01.211.01.413.01.624.009 6.403-4.696 13.795-13.3 13.795-2.537 0-5.028-.758-7.167-2.179a9.174 9.174 0 0 0 6.918-2.016c-2-.038-3.76-1.392-4.371-3.37a4.366 4.366 0 0 0 2.111-.086c-2.176-.441-3.741-2.429-3.75-4.742v-.058c.648.375 1.38.586 2.12.605C1.582 8.334.943 5.5 2.184 3.284c2.38 3.033 5.88 4.867 9.64 5.068a4.98 4.98 0 0 1 1.352-4.636c1.88-1.834 4.844-1.738 6.622.21a9.095 9.095 0 0 0 2.972-1.18 4.855 4.855 0 0 1-2.055 2.678 9.362 9.362 0 0 0 2.685-.758 9.768 9.768 0 0 1-2.343 2.515Z"/></svg></svg>